<?xml version="1.0" standalone="no"?>
<!DOCTYPE svg PUBLIC "-//W3C//DTD SVG 20010904//EN"
 "http://www.w3.org/TR/2001/REC-SVG-20010904/DTD/svg10.dtd">
<svg version="1.0" xmlns="http://www.w3.org/2000/svg"
 width="177.000000pt" height="177.000000pt" viewBox="0 0 177.000000 177.000000"
 preserveAspectRatio="xMidYMid meet">
<metadata>
Created by potrace 1.14, written by Peter Selinger 2001-2017
</metadata>
<g transform="translate(0.000000,177.000000) scale(0.100000,-0.100000)"
fill="#000000" stroke="none">
<path d="M774 1761 c-118 -19 -244 -77 -325 -150 l-44 -41 60 21 c95 31 247
59 325 59 l72 0 -23 -20 -24 -19 170 -1 c171 0 195 -5 195 -36 0 -7 -7 -20
-16 -28 -13 -14 -64 -16 -408 -16 -338 0 -395 -2 -406 -15 -10 -12 -10 -18 0
-30 10 -12 42 -15 166 -15 l154 0 -6 -25 -6 -25 340 0 c335 0 341 0 347 -20
16 -51 22 -50 -554 -50 -295 0 -542 -4 -549 -9 -8 -4 -12 -19 -10 -32 l3 -24
178 -3 c172 -2 178 -3 172 -22 -6 -20 0 -20 398 -20 436 0 433 0 425 -52 l-3
-23 -599 -5 c-545 -5 -600 -7 -609 -22 -8 -12 -7 -21 2 -32 11 -14 41 -16 192
-16 172 0 179 -1 179 -20 0 -20 7 -20 404 -20 222 0 411 -3 420 -6 13 -5 24
-57 14 -66 -2 -2 -268 -5 -592 -8 -554 -5 -589 -6 -600 -23 -9 -15 -7 -21 8
-33 16 -11 58 -14 197 -14 169 0 178 -1 184 -20 6 -20 15 -20 364 -20 358 0
381 -2 381 -35 -1 -40 3 -40 -527 -45 l-508 -5 0 -25 0 -25 189 -3 c187 -2
189 -3 208 -27 l19 -25 219 0 c204 0 219 -1 225 -19 8 -26 -3 -48 -28 -55 -12
-3 -89 -6 -172 -6 -127 -1 -147 -3 -132 -14 9 -7 17 -17 17 -21 0 -21 -307 29
-403 65 -29 11 -53 20 -55 20 -14 0 111 -94 156 -118 113 -60 184 -77 322 -77
108 1 136 5 206 28 175 58 335 202 404 362 54 125 68 307 35 435 -59 228 -247
416 -474 475 -76 19 -207 27 -277 16z"/>
<path d="M220 158 l0 -72 -65 69 -64 70 -1 -107 c0 -90 3 -108 15 -108 12 0
15 14 15 65 0 36 4 65 9 65 5 0 11 -4 13 -9 2 -4 27 -34 56 -65 l52 -58 0 111
c0 92 -3 111 -15 111 -12 0 -15 -15 -15 -72z"/>
<path d="M300 120 l0 -110 50 0 c38 0 50 4 50 15 0 10 -11 15 -35 15 -33 0
-35 2 -35 35 0 31 3 35 25 35 16 0 25 6 25 15 0 9 -9 15 -25 15 -21 0 -25 5
-25 30 0 27 3 30 30 30 20 0 30 5 30 15 0 11 -12 15 -45 15 l-45 0 0 -110z"/>
<path d="M418 225 c-3 -3 13 -54 36 -112 l40 -106 32 69 32 69 19 -45 c11 -25
23 -56 28 -69 4 -12 10 -19 14 -15 14 17 83 205 78 211 -15 14 -34 -10 -56
-73 -20 -55 -26 -65 -33 -49 -4 11 -17 43 -29 70 l-22 50 -30 -68 -30 -68 -26
67 c-24 63 -39 82 -53 69z"/>
<path d="M742 214 c-37 -26 -27 -72 23 -105 22 -15 40 -35 40 -46 0 -15 -8
-18 -43 -17 -34 1 -42 -2 -40 -15 2 -11 16 -17 42 -19 44 -4 76 19 76 55 0 23
-7 32 -64 77 -39 30 -30 61 14 53 32 -7 51 10 29 24 -21 13 -52 11 -77 -7z"/>
<path d="M1080 121 c0 -92 3 -111 15 -111 11 0 15 11 15 40 0 32 4 40 18 40
12 0 25 -14 37 -40 12 -27 24 -40 37 -40 19 0 18 2 -5 44 -24 43 -24 44 -6 60
24 20 24 68 1 89 -10 9 -40 20 -65 23 l-47 7 0 -112z m81 69 c37 -20 17 -70
-28 -70 -20 0 -23 5 -23 40 0 43 13 50 51 30z"/>
<path d="M1247 224 c-15 -15 -6 -24 23 -24 l30 0 0 -95 c0 -78 3 -95 15 -95
12 0 15 17 15 95 l0 95 31 0 c20 0 29 4 27 13 -5 13 -129 23 -141 11z"/>
<path d="M1427 223 c-4 -3 -7 -53 -7 -110 0 -85 3 -103 15 -103 12 0 15 19 15
110 0 101 -5 122 -23 103z"/>
<path d="M1555 218 c-38 -20 -55 -51 -55 -101 0 -64 39 -107 97 -107 41 0 72
14 60 27 -4 4 -25 6 -46 4 -32 -2 -42 2 -60 25 -29 37 -27 79 5 111 22 22 31
24 65 19 30 -5 39 -3 39 8 0 26 -67 35 -105 14z"/>
<path d="M915 147 c-19 -43 -42 -91 -50 -107 -15 -28 -14 -30 4 -30 11 0 22 9
26 20 5 17 15 20 60 20 45 0 55 -3 60 -20 3 -11 15 -20 25 -20 17 0 13 12 -26
98 -25 53 -49 101 -54 106 -6 6 -23 -21 -45 -67z m75 -59 c0 -5 -16 -8 -35 -8
-19 0 -35 2 -35 5 0 2 8 20 17 40 l17 36 18 -33 c9 -18 17 -36 18 -40z"/>
</g>
</svg>
