<?xml version="1.0" standalone="no"?>
<!DOCTYPE svg PUBLIC "-//W3C//DTD SVG 20010904//EN"
 "http://www.w3.org/TR/2001/REC-SVG-20010904/DTD/svg10.dtd">
<svg version="1.0" xmlns="http://www.w3.org/2000/svg"
 width="368.000000pt" height="368.000000pt" viewBox="0 0 368.000000 368.000000"
 preserveAspectRatio="xMidYMid meet">
<metadata>
Created by potrace 1.14, written by Peter Selinger 2001-2017
</metadata>
<g transform="translate(0.000000,368.000000) scale(0.100000,-0.100000)"
fill="#000000" stroke="none">
<path d="M1504 3555 c-291 -45 -582 -231 -684 -439 -77 -155 -20 -257 188
-335 134 -50 274 -70 522 -77 304 -9 413 12 638 122 177 87 309 225 328 340
14 93 -66 195 -213 272 -123 63 -269 100 -482 122 -128 12 -193 12 -297 -5z"/>
<path d="M1625 1534 c-467 -29 -826 -113 -1130 -264 -268 -133 -427 -289 -471
-461 -34 -132 24 -252 176 -366 149 -111 410 -208 695 -259 335 -60 464 -69
940 -69 460 0 503 3 825 51 517 79 867 246 968 463 21 46 24 64 20 130 -6 104
-46 179 -153 287 -243 246 -653 402 -1230 469 -127 15 -520 26 -640 19z"/>
</g>
</svg>
